<svg xmlns="http://www.w3.org/2000/svg" xmlns:xlink="http://www.w3.org/1999/xlink" width="1200" zoomAndPan="magnify" viewBox="0 0 900 525.000007" height="700" preserveAspectRatio="xMidYMid meet" version="1.0"><defs><g/><clipPath id="id1"><path d="M 0.855469 0 L 899.144531 0 L 899.144531 524 L 0.855469 524 Z M 0.855469 0 " clip-rule="nonzero"/></clipPath></defs><g clip-path="url(#id1)"><path fill="rgb(100%, 100%, 100%)" d="M 0.855469 0 L 899.144531 0 L 899.144531 531.488281 L 0.855469 531.488281 Z M 0.855469 0 " fill-opacity="1" fill-rule="nonzero"/><path fill="rgb(100%, 100%, 100%)" d="M 0.855469 0 L 899.144531 0 L 899.144531 524 L 0.855469 524 Z M 0.855469 0 " fill-opacity="1" fill-rule="nonzero"/><path fill="rgb(100%, 100%, 100%)" d="M 0.855469 0 L 899.144531 0 L 899.144531 524 L 0.855469 524 Z M 0.855469 0 " fill-opacity="1" fill-rule="nonzero"/><path fill="rgb(100%, 100%, 100%)" d="M 0.855469 0 L 899.144531 0 L 899.144531 524 L 0.855469 524 Z M 0.855469 0 " fill-opacity="1" fill-rule="nonzero"/></g><path fill="rgb(48.629761%, 53.729248%, 54.508972%)" d="M 450.917969 94.03125 C 451.46875 93.640625 451.933594 93.390625 452.300781 93.042969 C 453.21875 92.167969 454.097656 91.246094 454.988281 90.34375 C 456.585938 88.730469 458.191406 87.128906 459.777344 85.503906 C 460.285156 84.984375 460.707031 84.355469 460.085938 83.675781 C 458.941406 82.4375 457.753906 81.238281 456.566406 80.039062 C 455.164062 78.625 453.703125 77.265625 452.34375 75.816406 C 451.355469 74.757812 450.171875 74.691406 449.203125 75.777344 C 448.742188 76.296875 448.277344 76.8125 447.796875 77.304688 C 445.78125 79.371094 443.761719 81.429688 441.742188 83.488281 C 441.265625 83.972656 441.171875 84.464844 441.648438 85.007812 C 442.628906 86.125 443.574219 87.28125 444.597656 88.359375 C 446.019531 89.859375 447.472656 91.335938 448.972656 92.757812 C 449.496094 93.257812 450.199219 93.574219 450.917969 94.03125 Z M 502.976562 169.882812 C 502.582031 169.207031 502.335938 168.523438 501.875 168.050781 C 499.675781 165.796875 497.40625 163.613281 495.183594 161.378906 C 493.9375 160.125 493.011719 160.074219 491.722656 161.324219 C 490.894531 162.128906 490.125 162.992188 489.304688 163.800781 C 487.773438 165.3125 486.214844 166.800781 484.683594 168.3125 C 484.472656 168.523438 484.332031 168.816406 484.183594 169.082031 C 483.773438 169.832031 483.933594 170.425781 484.550781 171.039062 C 487.175781 173.621094 489.769531 176.238281 492.351562 178.859375 C 492.996094 179.515625 493.59375 179.566406 494.242188 178.929688 C 496.859375 176.378906 499.480469 173.832031 502.070312 171.257812 C 502.433594 170.898438 502.648438 170.390625 502.976562 169.882812 Z M 441.230469 127.25 C 441.652344 127.835938 442.023438 128.476562 442.519531 129 C 443.335938 129.863281 444.25 130.628906 445.085938 131.472656 C 446.488281 132.894531 447.828125 134.378906 449.261719 135.769531 C 450.265625 136.75 451.195312 136.757812 452.152344 135.816406 C 454.710938 133.304688 457.234375 130.757812 459.75 128.203125 C 460.472656 127.46875 460.417969 126.347656 459.785156 125.742188 C 457.140625 123.222656 454.488281 120.703125 451.90625 118.117188 C 451.363281 117.574219 450.921875 117.363281 450.34375 117.828125 C 449.460938 118.542969 448.613281 119.3125 447.785156 120.097656 C 445.832031 121.953125 443.886719 123.8125 441.980469 125.714844 C 441.65625 126.035156 441.550781 126.570312 441.230469 127.25 Z M 472.15625 157.898438 C 472.664062 157.640625 473.261719 157.496094 473.640625 157.128906 C 475.964844 154.859375 478.242188 152.546875 480.523438 150.234375 C 481.449219 149.300781 481.757812 148.121094 481.222656 147.558594 C 478.636719 144.871094 476.050781 142.1875 473.441406 139.523438 C 472.71875 138.792969 471.433594 138.769531 470.832031 139.394531 C 468.304688 142.003906 465.8125 144.648438 463.230469 147.203125 C 462.453125 147.976562 462.347656 148.570312 463.085938 149.339844 C 465.691406 152.035156 468.289062 154.742188 470.921875 157.414062 C 471.183594 157.675781 471.667969 157.714844 472.15625 157.898438 Z M 483.78125 127.113281 C 484.183594 127.707031 484.480469 128.304688 484.925781 128.765625 C 486.332031 130.230469 487.777344 131.65625 489.234375 133.074219 C 490.4375 134.25 491.65625 135.417969 492.925781 136.527344 C 493.097656 136.679688 493.679688 136.605469 493.894531 136.421875 C 495.121094 135.382812 496.3125 134.304688 497.472656 133.195312 C 499.046875 131.6875 500.558594 130.117188 502.140625 128.617188 C 502.976562 127.824219 503.039062 126.472656 502.203125 125.652344 C 500.59375 124.066406 499.011719 122.453125 497.390625 120.878906 C 496.289062 119.8125 495.175781 118.753906 494 117.773438 C 493.742188 117.558594 493.078125 117.5 492.824219 117.683594 C 492.109375 118.1875 491.5 118.84375 490.867188 119.460938 C 488.777344 121.5 486.683594 123.53125 484.628906 125.601562 C 484.285156 125.949219 484.125 126.484375 483.78125 127.113281 Z M 439.175781 148.25 C 438.855469 147.820312 438.648438 147.449219 438.359375 147.164062 C 435.820312 144.644531 433.265625 142.140625 430.71875 139.628906 C 429.613281 138.539062 429.242188 138.527344 428.152344 139.625 C 425.792969 141.996094 423.460938 144.394531 421.089844 146.753906 C 419.667969 148.175781 419.640625 148.746094 421.046875 150.144531 C 423.203125 152.292969 425.359375 154.441406 427.515625 156.59375 C 429.140625 158.21875 429.839844 158.191406 431.433594 156.589844 C 433.609375 154.414062 435.855469 152.304688 438.015625 150.117188 C 438.507812 149.617188 438.777344 148.90625 439.175781 148.25 Z M 417.617188 127.121094 C 417.371094 126.589844 417.257812 126.023438 416.921875 125.675781 C 414.589844 123.277344 412.226562 120.914062 409.847656 118.566406 C 408.683594 117.421875 407.722656 117.445312 406.597656 118.558594 C 404.328125 120.808594 402.09375 123.089844 399.78125 125.296875 C 398.382812 126.628906 398.328125 127.402344 399.726562 128.789062 C 401.996094 131.042969 404.265625 133.296875 406.511719 135.578125 C 407.695312 136.78125 408.5 136.867188 409.703125 135.699219 C 412.125 133.351562 414.535156 130.988281 416.910156 128.589844 C 417.25 128.242188 417.359375 127.667969 417.617188 127.121094 Z M 450.964844 179.410156 C 451.335938 179.203125 451.679688 179.097656 451.90625 178.871094 C 453.226562 177.542969 454.511719 176.179688 455.824219 174.839844 C 456.574219 174.074219 457.367188 173.351562 458.101562 172.574219 C 460.660156 169.875 461.28125 170.265625 458.472656 167.257812 C 456.554688 165.207031 454.46875 163.316406 452.503906 161.3125 C 451.265625 160.050781 450.054688 160.15625 448.839844 161.476562 C 446.945312 163.53125 444.996094 165.550781 442.9375 167.4375 C 441.203125 169.023438 441.011719 170.195312 442.628906 171.8125 C 444.867188 174.042969 447.09375 176.28125 449.367188 178.476562 C 449.789062 178.882812 450.398438 179.089844 450.964844 179.410156 Z M 450.949219 202.796875 C 450.433594 203.085938 449.820312 203.289062 449.402344 203.695312 C 446.949219 206.097656 444.535156 208.539062 442.128906 210.988281 C 441.136719 212 441.28125 213.273438 442.320312 214.285156 C 444.53125 216.449219 446.707031 218.648438 448.878906 220.855469 C 449.71875 221.710938 451.195312 222.058594 451.847656 221.425781 C 454.226562 219.121094 456.589844 216.800781 458.9375 214.460938 C 459.34375 214.058594 459.664062 213.5625 459.992188 213.085938 C 460.484375 212.371094 460.417969 211.796875 459.6875 211.199219 C 458.828125 210.5 458.085938 209.65625 457.304688 208.863281 C 455.453125 206.984375 453.613281 205.089844 451.75 203.21875 C 451.578125 203.039062 451.292969 202.972656 450.949219 202.796875 Z M 408.066406 179.433594 C 408.679688 179.03125 409.359375 178.695312 409.902344 178.210938 C 410.675781 177.519531 411.34375 176.710938 412.070312 175.964844 C 413.789062 174.199219 415.527344 172.453125 417.226562 170.667969 C 417.449219 170.433594 417.679688 169.929688 417.574219 169.707031 C 417.234375 168.988281 416.828125 168.253906 416.28125 167.6875 C 414.1875 165.511719 412.003906 163.417969 409.902344 161.253906 C 408.960938 160.285156 407.488281 160.15625 406.65625 161.019531 C 405.160156 162.5625 403.605469 164.050781 402.105469 165.59375 C 401.007812 166.71875 399.921875 167.863281 398.898438 169.054688 C 398.375 169.660156 398.472656 170.246094 399.121094 170.855469 C 400.628906 172.273438 402.050781 173.78125 403.5 175.261719 C 404.675781 176.464844 405.828125 177.691406 407.019531 178.882812 C 407.242188 179.101562 407.597656 179.195312 408.066406 179.433594 Z M 416.152344 144.527344 C 416.414062 144.464844 416.683594 144.472656 416.851562 144.34375 C 417.628906 143.753906 418.417969 143.171875 419.125 142.507812 C 420.6875 141.039062 422.214844 139.527344 423.742188 138.023438 C 425.214844 136.566406 426.679688 135.101562 428.136719 133.632812 C 429.402344 132.351562 430.65625 131.058594 431.917969 129.773438 C 433.339844 128.324219 434.75 126.867188 436.191406 125.4375 C 437.550781 124.082031 438.953125 122.777344 440.3125 121.425781 C 442.265625 119.476562 444.164062 117.472656 446.140625 115.546875 C 447.199219 114.519531 447.332031 113.664062 446.320312 112.609375 C 445.386719 111.636719 444.417969 110.691406 443.425781 109.777344 C 443.214844 109.585938 442.730469 109.398438 442.550781 109.503906 C 441.773438 109.972656 441.019531 110.5 440.339844 111.105469 C 439.511719 111.839844 438.769531 112.671875 437.984375 113.457031 C 436.523438 114.921875 435.054688 116.375 433.597656 117.84375 C 432.246094 119.199219 430.917969 120.582031 429.5625 121.933594 C 428.097656 123.390625 426.601562 124.816406 425.136719 126.273438 C 423.808594 127.597656 422.519531 128.960938 421.191406 130.289062 C 419.753906 131.722656 418.28125 133.125 416.84375 134.558594 C 415.457031 135.941406 414.171875 137.4375 412.695312 138.707031 C 411.789062 139.488281 411.597656 140.320312 412.246094 141.09375 C 413.25 142.289062 414.484375 143.300781 415.636719 144.371094 C 415.757812 144.488281 415.992188 144.484375 416.152344 144.527344 Z M 459.394531 187.410156 C 459.550781 187.332031 459.859375 187.246094 460.070312 187.054688 C 460.667969 186.519531 461.238281 185.945312 461.800781 185.371094 C 464.296875 182.820312 466.761719 180.234375 469.289062 177.71875 C 475.152344 171.875 481.054688 166.078125 486.914062 160.230469 C 487.828125 159.316406 488.628906 158.269531 489.386719 157.210938 C 489.585938 156.929688 489.601562 156.25 489.398438 155.992188 C 488.5 154.851562 487.570312 153.710938 486.492188 152.746094 C 485.902344 152.21875 484.988281 151.789062 484.1875 152.566406 C 481.875 154.8125 479.570312 157.066406 477.296875 159.351562 C 475.324219 161.339844 473.433594 163.410156 471.449219 165.382812 C 468.941406 167.882812 466.363281 170.304688 463.84375 172.792969 C 461.078125 175.519531 458.304688 178.238281 455.636719 181.054688 C 455.09375 181.628906 454.507812 182.9375 454.78125 183.367188 C 455.777344 184.914062 456.921875 186.445312 458.675781 187.292969 C 458.839844 187.375 459.050781 187.359375 459.394531 187.410156 Z M 463.703125 166.125 C 464.355469 165.914062 464.851562 165.902344 465.105469 165.644531 C 466.183594 164.558594 467.234375 163.433594 468.191406 162.242188 C 468.40625 161.976562 468.390625 161.238281 468.171875 160.957031 C 467.253906 159.785156 466.265625 158.65625 465.210938 157.601562 C 462.6875 155.085938 460.082031 152.652344 457.558594 150.132812 C 454.460938 147.046875 451.417969 143.898438 448.332031 140.792969 C 445.109375 137.550781 441.855469 134.34375 438.632812 131.101562 C 438.050781 130.515625 437.539062 130.492188 436.945312 131.050781 C 435.960938 131.972656 434.953125 132.863281 433.976562 133.789062 C 433.019531 134.703125 433.09375 136.183594 434.113281 137.039062 C 434.492188 137.363281 434.890625 137.667969 435.242188 138.019531 C 436.648438 139.425781 438.039062 140.851562 439.441406 142.261719 C 440.875 143.699219 442.324219 145.125 443.757812 146.5625 C 445.054688 147.863281 446.332031 149.183594 447.632812 150.480469 C 449.617188 152.457031 451.621094 154.410156 453.605469 156.382812 C 455.128906 157.894531 456.636719 159.417969 458.148438 160.941406 C 459.46875 162.273438 460.765625 163.632812 462.117188 164.9375 C 462.601562 165.40625 463.199219 165.753906 463.703125 166.125 Z M 519.398438 169.792969 C 519.011719 169.191406 518.695312 168.574219 518.261719 168.0625 C 517.867188 167.597656 517.316406 167.273438 516.878906 166.835938 C 510.09375 160.09375 503.300781 153.359375 496.542969 146.589844 C 491.882812 141.921875 487.277344 137.195312 482.628906 132.515625 C 482.035156 131.917969 481.382812 131.335938 480.652344 130.941406 C 480.3125 130.753906 479.574219 130.863281 479.269531 131.128906 C 478.253906 132.003906 477.363281 133.023438 476.410156 133.96875 C 475.542969 134.828125 475.609375 136.078125 476.550781 136.882812 C 477.253906 137.484375 477.945312 138.097656 478.597656 138.75 C 481.898438 142.039062 485.1875 145.339844 488.476562 148.632812 C 494.722656 154.886719 500.976562 161.132812 507.203125 167.402344 C 507.707031 167.910156 508.152344 168.542969 508.417969 169.199219 C 508.582031 169.601562 508.53125 170.332031 508.265625 170.628906 C 506.078125 173.03125 503.832031 175.386719 501.566406 177.71875 C 499.675781 179.675781 497.726562 181.578125 495.816406 183.515625 C 494.195312 185.15625 492.625 185.140625 491.039062 183.519531 C 490.179688 182.644531 489.320312 181.773438 488.457031 180.902344 C 486.40625 178.835938 484.3125 176.8125 482.3125 174.691406 C 481.109375 173.414062 479.816406 173.269531 478.574219 174.484375 C 477.886719 175.15625 477.167969 175.804688 476.488281 176.488281 C 475.503906 177.480469 475.578125 178.347656 476.574219 179.320312 C 477.917969 180.632812 479.203125 182.003906 480.515625 183.347656 C 481.910156 184.773438 483.292969 186.203125 484.695312 187.617188 C 486.125 189.0625 487.558594 190.496094 489.011719 191.917969 C 490.246094 193.125 491.484375 194.328125 492.785156 195.464844 C 493 195.652344 493.628906 195.632812 493.886719 195.449219 C 494.640625 194.921875 495.332031 194.296875 495.984375 193.648438 C 497.3125 192.324219 498.582031 190.9375 499.910156 189.609375 C 501.949219 187.574219 504.039062 185.589844 506.066406 183.542969 C 507.90625 181.691406 509.660156 179.757812 511.507812 177.910156 C 513.917969 175.503906 516.386719 173.152344 518.816406 170.757812 C 519.046875 170.53125 519.164062 170.191406 519.398438 169.792969 Z M 519.351562 127.226562 C 519.136719 126.710938 519.0625 126.210938 518.777344 125.902344 C 517.660156 124.6875 516.484375 123.523438 515.308594 122.367188 C 513.308594 120.402344 511.277344 118.46875 509.292969 116.492188 C 507.332031 114.546875 505.417969 112.558594 503.472656 110.597656 C 500.773438 107.875 498.046875 105.175781 495.375 102.429688 C 494.0625 101.082031 493.148438 100.992188 491.796875 102.304688 C 490.390625 103.671875 489.019531 105.078125 487.632812 106.464844 C 484.582031 109.515625 481.535156 112.566406 478.484375 115.617188 C 472.679688 121.425781 466.875 127.234375 461.074219 133.046875 C 459.113281 135.007812 457.1875 137.003906 455.191406 138.925781 C 454.554688 139.539062 454.355469 140.136719 454.871094 140.828125 C 455.570312 141.769531 456.355469 142.652344 457.101562 143.558594 C 458.164062 144.84375 459.488281 144.925781 460.667969 143.746094 C 466.386719 138.019531 472.082031 132.273438 477.816406 126.5625 C 482.378906 122.015625 486.980469 117.503906 491.582031 112.996094 C 493.011719 111.59375 494.164062 111.660156 495.558594 113.070312 C 497.605469 115.144531 499.695312 117.183594 501.742188 119.261719 C 503.761719 121.3125 505.777344 123.375 507.742188 125.484375 C 508.832031 126.652344 508.84375 127.464844 507.75 128.699219 C 506.535156 130.074219 505.203125 131.351562 503.917969 132.667969 C 501.929688 134.699219 499.945312 136.738281 497.945312 138.753906 C 497.019531 139.691406 496.960938 140.871094 497.914062 141.765625 C 498.917969 142.707031 500 143.5625 501 144.507812 C 501.523438 145 501.886719 144.921875 502.359375 144.460938 C 505.082031 141.808594 507.835938 139.191406 510.550781 136.535156 C 513.269531 133.875 515.964844 131.1875 518.644531 128.484375 C 518.964844 128.164062 519.109375 127.664062 519.351562 127.226562 Z M 399.871094 152.007812 C 399.332031 152.273438 399.011719 152.347656 398.808594 152.542969 C 397.550781 153.777344 396.308594 155.027344 395.078125 156.289062 C 393.175781 158.234375 391.304688 160.21875 389.382812 162.144531 C 387.433594 164.097656 385.40625 165.976562 383.464844 167.933594 C 382.230469 169.171875 382.183594 170.050781 383.324219 171.339844 C 384.34375 172.484375 385.515625 173.496094 386.59375 174.585938 C 390.191406 178.234375 393.769531 181.902344 397.375 185.539062 C 400.570312 188.765625 403.773438 191.980469 407.019531 195.152344 C 407.320312 195.449219 407.996094 195.59375 408.410156 195.480469 C 408.972656 195.328125 409.523438 194.9375 409.949219 194.515625 C 415.792969 188.683594 421.617188 182.835938 427.4375 176.980469 C 431.457031 172.933594 435.464844 168.871094 439.476562 164.816406 C 441.863281 162.40625 444.242188 159.992188 446.640625 157.59375 C 447.371094 156.867188 447.347656 156.214844 446.617188 155.515625 C 445.871094 154.796875 445.132812 154.058594 444.417969 153.304688 C 442.992188 151.796875 442.386719 151.765625 440.914062 153.230469 C 437.722656 156.414062 434.550781 159.613281 431.355469 162.789062 C 426.410156 167.710938 421.449219 172.613281 416.5 177.53125 C 414.394531 179.625 412.320312 181.746094 410.207031 183.828125 C 408.964844 185.046875 407.789062 185.183594 406.488281 184.085938 C 404.964844 182.796875 403.554688 181.371094 402.132812 179.96875 C 399.476562 177.351562 396.863281 174.6875 394.199219 172.082031 C 393.160156 171.070312 392.828125 169.140625 393.773438 168.09375 C 395.445312 166.238281 397.203125 164.464844 398.945312 162.675781 C 400.675781 160.894531 402.425781 159.125 404.179688 157.363281 C 404.726562 156.816406 404.75 156.332031 404.191406 155.78125 C 403.375 154.972656 402.625 154.089844 401.769531 153.324219 C 401.1875 152.796875 400.472656 152.414062 399.871094 152.007812 Z M 392.894531 127.140625 C 393.25 126.441406 393.386719 125.882812 393.738281 125.527344 C 397.902344 121.296875 402.089844 117.085938 406.292969 112.894531 C 407.472656 111.71875 408.859375 111.765625 410.0625 112.941406 C 410.832031 113.691406 411.582031 114.460938 412.347656 115.214844 C 413.875 116.71875 415.414062 118.210938 416.941406 119.714844 C 418.121094 120.871094 419.253906 122.078125 420.488281 123.175781 C 420.75 123.410156 421.515625 123.464844 421.769531 123.257812 C 423.019531 122.238281 424.195312 121.128906 425.34375 119.992188 C 425.566406 119.769531 425.601562 119.304688 425.628906 118.941406 C 425.722656 117.597656 424.59375 117.074219 423.828125 116.296875 C 421.890625 114.332031 419.984375 112.34375 418.046875 110.382812 C 415.347656 107.660156 412.613281 104.972656 409.925781 102.238281 C 409.015625 101.308594 407.625 101.144531 406.761719 102.003906 C 403.738281 105.023438 400.710938 108.035156 397.703125 111.070312 C 395.394531 113.394531 393.132812 115.765625 390.820312 118.078125 C 388.285156 120.613281 385.699219 123.089844 383.179688 125.632812 C 382.867188 125.949219 382.722656 126.496094 382.632812 126.960938 C 382.367188 128.351562 383.554688 128.84375 384.324219 129.613281 C 387.039062 132.332031 389.710938 135.097656 392.425781 137.816406 C 394.789062 140.183594 397.203125 142.5 399.566406 144.863281 C 402.699219 147.996094 405.800781 151.164062 408.933594 154.296875 C 412.550781 157.917969 416.191406 161.511719 419.808594 165.132812 C 420.863281 166.1875 421.515625 166.34375 422.585938 165.382812 C 423.582031 164.488281 424.484375 163.460938 425.289062 162.386719 C 425.554688 162.027344 425.625 161.191406 425.390625 160.847656 C 424.660156 159.789062 423.789062 158.804688 422.875 157.890625 C 420.261719 155.273438 417.570312 152.730469 414.957031 150.105469 C 411.449219 146.582031 408.011719 142.984375 404.5 139.464844 C 401.125 136.082031 397.667969 132.777344 394.304688 129.386719 C 393.695312 128.773438 393.355469 127.890625 392.894531 127.140625 Z M 447.230469 199.226562 C 446.925781 198.746094 446.699219 198.234375 446.339844 197.84375 C 445.535156 196.96875 444.589844 196.214844 443.839844 195.300781 C 443.109375 194.414062 442.453125 194.449219 441.707031 195.160156 C 440.125 196.671875 438.542969 198.183594 436.984375 199.722656 C 434.910156 201.769531 432.851562 203.835938 430.789062 205.898438 C 428.972656 207.71875 427.144531 209.523438 425.371094 211.386719 C 425.113281 211.65625 424.933594 212.347656 425.097656 212.605469 C 425.65625 213.484375 426.328125 214.316406 427.058594 215.0625 C 430.601562 218.699219 434.171875 222.304688 437.75 225.910156 C 441.566406 229.757812 445.410156 233.585938 449.226562 237.4375 C 450.269531 238.492188 451.386719 238.441406 452.328125 237.316406 C 452.988281 236.523438 453.746094 235.8125 454.480469 235.082031 C 456.566406 233.007812 458.664062 230.941406 460.753906 228.871094 C 462.140625 227.496094 463.523438 226.117188 464.917969 224.75 C 466.238281 223.457031 467.582031 222.191406 468.894531 220.894531 C 471.046875 218.761719 473.144531 216.570312 475.347656 214.484375 C 476.546875 213.347656 476.773438 212.03125 475.636719 210.878906 C 470.207031 205.402344 464.761719 199.941406 459.316406 194.480469 C 455.503906 190.660156 451.683594 186.84375 447.855469 183.039062 C 444.738281 179.945312 441.597656 176.882812 438.484375 173.789062 C 438.007812 173.3125 437.621094 173.25 437.105469 173.695312 C 436.035156 174.617188 434.890625 175.460938 433.871094 176.429688 C 433.082031 177.179688 433.183594 178.550781 433.960938 179.339844 C 434.902344 180.300781 435.863281 181.242188 436.804688 182.199219 C 438.664062 184.09375 440.503906 186.015625 442.382812 187.890625 C 444.996094 190.5 447.65625 193.0625 450.265625 195.675781 C 452.582031 197.992188 454.832031 200.371094 457.148438 202.683594 C 459.683594 205.214844 462.296875 207.660156 464.796875 210.21875 C 466.25 211.707031 466.136719 213.265625 464.628906 214.785156 C 463.953125 215.46875 463.207031 216.082031 462.523438 216.757812 C 459.113281 220.132812 455.722656 223.519531 452.304688 226.886719 C 451.1875 227.988281 450.175781 227.945312 449.035156 226.8125 C 446.414062 224.207031 443.785156 221.605469 441.175781 218.992188 C 439.597656 217.410156 438.035156 215.8125 436.480469 214.207031 C 435.328125 213.015625 435.292969 212.082031 436.371094 210.921875 C 437.703125 209.480469 439.027344 208.03125 440.414062 206.644531 C 442.429688 204.632812 444.511719 202.6875 446.523438 200.671875 C 446.84375 200.351562 446.949219 199.820312 447.230469 199.226562 Z M 458.585938 102.097656 C 459.253906 101.898438 459.765625 101.878906 460.097656 101.621094 C 460.820312 101.058594 461.480469 100.402344 462.121094 99.742188 C 463.988281 97.8125 465.808594 95.832031 467.703125 93.925781 C 470.269531 91.34375 472.898438 88.832031 475.476562 86.261719 C 476.722656 85.019531 476.902344 84.292969 475.789062 83.042969 C 473.851562 80.871094 471.722656 78.875 469.664062 76.820312 C 467.765625 74.917969 465.832031 73.050781 463.945312 71.140625 C 462.03125 69.203125 460.167969 67.214844 458.25 65.277344 C 456.222656 63.234375 454.121094 61.269531 452.136719 59.183594 C 451.46875 58.480469 450.875 58.367188 450.125 58.828125 C 449.667969 59.105469 449.238281 59.445312 448.859375 59.820312 C 446.375 62.289062 443.894531 64.761719 441.441406 67.257812 C 438.601562 70.140625 435.816406 73.070312 432.964844 75.933594 C 430.632812 78.277344 428.226562 80.542969 425.882812 82.871094 C 424.746094 83.996094 424.746094 84.933594 425.859375 86.074219 C 427.148438 87.398438 428.488281 88.675781 429.796875 89.984375 C 434.519531 94.695312 439.242188 99.414062 443.957031 104.136719 C 445.863281 106.039062 447.75 107.960938 449.652344 109.871094 C 453.84375 114.078125 458.054688 118.269531 462.222656 122.5 C 463.246094 123.542969 464.207031 123.667969 465.285156 122.636719 C 466.0625 121.886719 466.800781 121.09375 467.589844 120.355469 C 468.511719 119.496094 468.617188 118.695312 467.828125 117.691406 C 467.519531 117.300781 467.136719 116.964844 466.78125 116.609375 C 462.417969 112.246094 458.050781 107.886719 453.6875 103.523438 C 450.117188 99.949219 446.546875 96.371094 442.976562 92.796875 C 440.847656 90.667969 438.714844 88.546875 436.59375 86.410156 C 435.40625 85.210938 435.277344 84.191406 436.355469 82.972656 C 437.808594 81.328125 439.359375 79.773438 440.910156 78.214844 C 443.410156 75.699219 446.0625 73.324219 448.414062 70.679688 C 449.878906 69.035156 451.957031 69.375 453.269531 70.660156 C 454.199219 71.570312 455.082031 72.535156 456.003906 73.453125 C 458.941406 76.386719 461.898438 79.296875 464.816406 82.246094 C 465.972656 83.417969 466.160156 85.820312 464.554688 86.816406 C 463.636719 87.386719 462.972656 88.371094 462.191406 89.160156 C 460.742188 90.632812 459.265625 92.085938 457.835938 93.578125 C 456.753906 94.707031 455.742188 95.902344 454.671875 97.039062 C 454.167969 97.574219 454.332031 97.941406 454.785156 98.402344 C 455.640625 99.277344 456.425781 100.226562 457.285156 101.101562 C 457.679688 101.5 458.183594 101.792969 458.585938 102.097656 Z M 524.875 127.1875 C 524.4375 127.925781 524.148438 128.742188 523.601562 129.300781 C 517.972656 135.027344 512.300781 140.707031 506.644531 146.402344 C 504.886719 148.171875 504.984375 148.988281 506.890625 150.699219 C 508.289062 151.953125 509.550781 153.355469 510.878906 154.683594 C 512.859375 156.664062 514.851562 158.636719 516.824219 160.621094 C 518.824219 162.632812 520.8125 164.664062 522.808594 166.683594 C 523.265625 167.144531 523.8125 167.542969 524.183594 168.066406 C 524.921875 169.101562 524.878906 170.527344 523.9375 171.605469 C 522.65625 173.078125 521.234375 174.429688 519.859375 175.824219 C 518.539062 177.164062 517.214844 178.492188 515.882812 179.820312 C 514.390625 181.304688 512.890625 182.78125 511.402344 184.269531 C 510.097656 185.570312 508.804688 186.882812 507.503906 188.1875 C 505.503906 190.195312 503.496094 192.199219 501.496094 194.207031 C 499.574219 196.136719 497.621094 198.03125 495.75 200.007812 C 494.386719 201.453125 493.152344 201.652344 491.65625 200.304688 C 490.050781 198.859375 488.5625 197.289062 487.015625 195.78125 C 484.015625 192.851562 480.992188 189.941406 478.011719 186.988281 C 476.671875 185.660156 475.460938 184.203125 474.109375 182.890625 C 473.589844 182.386719 472.875 182.003906 472.183594 181.785156 C 471.820312 181.671875 471.1875 181.90625 470.886719 182.199219 C 468.390625 184.613281 465.933594 187.070312 463.492188 189.539062 C 462.378906 190.660156 462.449219 191.585938 463.554688 192.695312 C 466.140625 195.292969 468.6875 197.933594 471.273438 200.527344 C 474.625 203.882812 478.015625 207.199219 481.355469 210.5625 C 482.328125 211.542969 482.515625 213.074219 481.804688 213.9375 C 481.195312 214.675781 480.488281 215.332031 479.808594 216.011719 C 478.347656 217.472656 476.882812 218.929688 475.410156 220.382812 C 473.992188 221.78125 472.5625 223.167969 471.144531 224.566406 C 469.917969 225.78125 468.695312 227.003906 467.476562 228.226562 C 465.449219 230.265625 463.417969 232.300781 461.398438 234.347656 C 459.300781 236.480469 457.238281 238.644531 455.121094 240.753906 C 454.257812 241.613281 453.355469 242.464844 452.355469 243.144531 C 450.917969 244.132812 449.921875 243.957031 448.636719 242.691406 C 447.039062 241.125 445.460938 239.542969 443.882812 237.960938 C 439.113281 233.191406 434.351562 228.414062 429.585938 223.636719 C 426.59375 220.640625 423.585938 217.652344 420.632812 214.613281 C 420.089844 214.054688 419.617188 213.308594 419.414062 212.566406 C 419.089844 211.386719 420.15625 210.679688 420.8125 209.988281 C 423.46875 207.175781 426.222656 204.457031 428.964844 201.726562 C 430.941406 199.753906 432.957031 197.816406 434.949219 195.859375 C 436.125 194.707031 437.296875 193.550781 438.453125 192.382812 C 439.148438 191.675781 439.003906 190.316406 438.238281 189.574219 C 436.070312 187.464844 433.933594 185.320312 431.757812 183.214844 C 431.152344 182.628906 430.480469 182.101562 429.792969 181.617188 C 429.617188 181.496094 429.164062 181.539062 428.996094 181.683594 C 427.753906 182.761719 426.519531 183.855469 425.335938 185 C 423.824219 186.46875 422.363281 187.984375 420.878906 189.484375 C 419.503906 190.875 418.136719 192.277344 416.761719 193.667969 C 415.464844 194.980469 414.167969 196.292969 412.863281 197.589844 C 411.992188 198.457031 411.070312 199.269531 410.226562 200.160156 C 408.945312 201.511719 407.589844 201.546875 406.261719 200.21875 C 402.933594 196.894531 399.605469 193.570312 396.269531 190.257812 C 391.480469 185.5 386.679688 180.765625 381.898438 176 C 380.402344 174.503906 378.9375 172.96875 377.507812 171.410156 C 376.382812 170.183594 376.417969 169.058594 377.59375 167.859375 C 379.800781 165.605469 382.046875 163.394531 384.261719 161.148438 C 386.90625 158.460938 389.535156 155.753906 392.171875 153.054688 C 393.433594 151.765625 394.699219 150.484375 395.960938 149.191406 C 396.621094 148.515625 396.628906 147.984375 395.859375 147.269531 C 394.34375 145.863281 392.976562 144.300781 391.515625 142.839844 C 390.160156 141.484375 388.746094 140.1875 387.390625 138.835938 C 386.007812 137.457031 384.671875 136.027344 383.296875 134.640625 C 381.949219 133.28125 380.574219 131.949219 379.21875 130.597656 C 378.484375 129.867188 377.6875 129.175781 377.074219 128.351562 C 376.480469 127.554688 376.433594 126.519531 377.125 125.78125 C 378.882812 123.910156 380.75 122.140625 382.5625 120.316406 C 383.941406 118.933594 385.296875 117.519531 386.679688 116.136719 C 388.085938 114.726562 389.519531 113.34375 390.925781 111.933594 C 392.355469 110.496094 393.753906 109.027344 395.183594 107.585938 C 396.480469 106.28125 397.804688 105 399.109375 103.703125 C 400.523438 102.300781 401.921875 100.886719 403.34375 99.492188 C 404.625 98.230469 405.863281 96.910156 407.246094 95.765625 C 408 95.144531 408.972656 95.433594 409.652344 96.109375 C 412.628906 99.0625 415.5625 102.058594 418.527344 105.023438 C 421.808594 108.308594 425.113281 111.574219 428.398438 114.855469 C 429.121094 115.578125 429.761719 115.566406 430.480469 114.839844 C 433.078125 112.222656 435.703125 109.628906 438.316406 107.015625 C 439.117188 106.210938 438.933594 105.019531 437.988281 104.082031 C 435.261719 101.371094 432.574219 98.617188 429.851562 95.90625 C 427.917969 93.976562 425.898438 92.132812 424.003906 90.167969 C 422.410156 88.507812 420.914062 86.746094 419.453125 84.972656 C 419.246094 84.71875 419.28125 83.953125 419.511719 83.703125 C 421.742188 81.289062 424.039062 78.933594 426.316406 76.5625 C 427.667969 75.15625 429.003906 73.730469 430.375 72.339844 C 431.609375 71.082031 432.878906 69.859375 434.132812 68.617188 C 435.628906 67.136719 437.121094 65.652344 438.621094 64.171875 C 440.117188 62.695312 441.632812 61.234375 443.121094 59.742188 C 444.992188 57.875 446.871094 56.011719 448.6875 54.089844 C 449.933594 52.769531 451.40625 52.628906 452.707031 53.914062 C 456.078125 57.25 459.421875 60.617188 462.789062 63.964844 C 468.421875 69.566406 474.0625 75.164062 479.695312 80.769531 C 480.351562 81.421875 480.984375 82.101562 481.582031 82.808594 C 482.503906 83.90625 482.382812 85.332031 481.355469 86.351562 C 477.808594 89.882812 474.269531 93.421875 470.730469 96.957031 C 468.496094 99.1875 466.269531 101.425781 464.027344 103.648438 C 462.222656 105.433594 462.355469 106.359375 464.476562 108.371094 C 466.644531 110.425781 468.722656 112.578125 470.824219 114.703125 C 471.476562 115.359375 472.777344 115.347656 473.511719 114.605469 C 477.570312 110.492188 481.605469 106.355469 485.6875 102.265625 C 487.753906 100.195312 489.863281 98.167969 492.011719 96.183594 C 493.0625 95.214844 493.9375 95.246094 494.96875 96.234375 C 497.472656 98.644531 499.9375 101.089844 502.398438 103.539062 C 506.550781 107.675781 510.699219 111.816406 514.832031 115.976562 C 517.902344 119.066406 520.957031 122.167969 523.96875 125.3125 C 524.378906 125.738281 524.519531 126.429688 524.875 127.1875 " fill-opacity="1" fill-rule="nonzero"/><path fill="rgb(48.629761%, 53.729248%, 54.508972%)" d="M 346.0625 135.71875 C 341.824219 158.765625 344.628906 183.082031 355.425781 204.007812 C 366.878906 226.199219 386.710938 242.933594 409.777344 252.058594 C 432 260.855469 456.800781 262.226562 479.847656 255.902344 C 503.359375 249.445312 524.722656 235.339844 539.140625 215.570312 C 547.199219 204.515625 552.847656 191.691406 555.554688 178.277344 C 557.992188 166.175781 558.140625 153.78125 556.382812 141.582031 C 556.113281 139.703125 555.792969 137.832031 555.425781 135.96875 C 555.144531 134.523438 553.414062 133.691406 552.074219 134.0625 C 550.5625 134.476562 549.882812 135.96875 550.167969 137.421875 C 551.046875 141.929688 551.523438 145.410156 551.859375 149.964844 C 552.285156 155.808594 552.238281 161.691406 551.679688 167.527344 C 550.398438 180.898438 546.152344 193.933594 539.28125 205.472656 C 527.414062 225.390625 508.09375 240.339844 486.378906 248.113281 C 464.816406 255.832031 441.417969 256.386719 419.589844 249.722656 C 397.566406 242.996094 377.703125 229.058594 365.039062 209.664062 C 357.378906 197.9375 352.5 184.597656 350.554688 170.734375 C 349.773438 165.171875 349.5 159.523438 349.628906 153.910156 C 349.683594 151.542969 349.8125 149.175781 350.015625 146.820312 C 350.105469 145.789062 350.210938 144.757812 350.328125 143.730469 C 350.382812 143.257812 350.441406 142.785156 350.5 142.3125 C 350.503906 142.304688 350.601562 141.554688 350.542969 142 C 350.488281 142.394531 350.601562 141.570312 350.613281 141.496094 C 350.820312 140.050781 351.058594 138.609375 351.320312 137.171875 C 351.589844 135.722656 350.925781 134.226562 349.417969 133.8125 C 348.09375 133.449219 346.332031 134.261719 346.0625 135.71875 " fill-opacity="1" fill-rule="nonzero"/><path fill="rgb(48.629761%, 53.729248%, 54.508972%)" d="M 549.96875 136.566406 C 550.042969 156.046875 538.941406 173.371094 525.78125 186.863281 C 511.601562 201.398438 494.632812 212.824219 480.257812 227.152344 C 472.46875 234.914062 465.410156 243.5625 460.371094 253.382812 C 459.699219 254.695312 460.03125 256.347656 461.351562 257.121094 C 462.570312 257.835938 464.40625 257.457031 465.082031 256.140625 C 474.21875 238.332031 489.730469 225.191406 504.886719 212.648438 C 520.570312 199.664062 536.773438 186.386719 546.738281 168.242188 C 552.070312 158.542969 555.464844 147.707031 555.425781 136.566406 C 555.410156 133.054688 549.957031 133.046875 549.96875 136.566406 " fill-opacity="1" fill-rule="nonzero"/><path fill="rgb(48.629761%, 53.729248%, 54.508972%)" d="M 513.535156 218.234375 C 500.316406 225.421875 489.113281 236.09375 481.222656 248.910156 C 479.375 251.910156 484.089844 254.65625 485.933594 251.664062 C 493.351562 239.617188 503.867188 229.703125 516.285156 222.949219 C 519.371094 221.269531 516.621094 216.554688 513.535156 218.234375 " fill-opacity="1" fill-rule="nonzero"/><path fill="rgb(48.629761%, 53.729248%, 54.508972%)" d="M 521.28125 218.066406 C 524.792969 218.066406 524.796875 212.605469 521.28125 212.605469 C 517.769531 212.605469 517.765625 218.066406 521.28125 218.066406 " fill-opacity="1" fill-rule="nonzero"/><path fill="rgb(48.629761%, 53.729248%, 54.508972%)" d="M 525.058594 207.824219 C 525.058594 207.914062 525.058594 208.007812 525.058594 208.097656 C 525.058594 211.613281 530.511719 211.617188 530.511719 208.097656 C 530.511719 208.007812 530.511719 207.914062 530.511719 207.824219 C 530.511719 204.308594 525.058594 204.304688 525.058594 207.824219 C 525.058594 207.914062 525.058594 208.007812 525.058594 208.097656 C 525.058594 211.613281 530.511719 211.617188 530.511719 208.097656 C 530.511719 208.007812 530.511719 207.914062 530.511719 207.824219 C 530.511719 204.308594 525.058594 204.304688 525.058594 207.824219 " fill-opacity="1" fill-rule="nonzero"/><path fill="rgb(48.629761%, 53.729248%, 54.508972%)" d="M 534.789062 202.039062 C 538.296875 202.039062 538.304688 196.578125 534.789062 196.578125 C 531.277344 196.578125 531.273438 202.039062 534.789062 202.039062 " fill-opacity="1" fill-rule="nonzero"/><path fill="rgb(48.629761%, 53.729248%, 54.508972%)" d="M 549.863281 127.785156 C 553.375 127.785156 553.378906 122.320312 549.863281 122.320312 C 546.355469 122.320312 546.347656 127.785156 549.863281 127.785156 " fill-opacity="1" fill-rule="nonzero"/><path fill="rgb(48.629761%, 53.729248%, 54.508972%)" d="M 546.238281 114.136719 C 549.746094 114.136719 549.753906 108.671875 546.238281 108.671875 C 542.726562 108.671875 542.722656 114.136719 546.238281 114.136719 " fill-opacity="1" fill-rule="nonzero"/><path fill="rgb(48.629761%, 53.729248%, 54.508972%)" d="M 537.855469 103.367188 C 541.367188 103.367188 541.371094 97.90625 537.855469 97.90625 C 534.347656 97.90625 534.34375 103.367188 537.855469 103.367188 " fill-opacity="1" fill-rule="nonzero"/><path fill="rgb(48.629761%, 53.729248%, 54.508972%)" d="M 357.523438 114.136719 C 361.035156 114.136719 361.039062 108.671875 357.523438 108.671875 C 354.015625 108.671875 354.007812 114.136719 357.523438 114.136719 " fill-opacity="1" fill-rule="nonzero"/><path fill="rgb(48.629761%, 53.729248%, 54.508972%)" d="M 365.902344 103.367188 C 369.414062 103.367188 369.417969 97.90625 365.902344 97.90625 C 362.394531 97.90625 362.386719 103.367188 365.902344 103.367188 " fill-opacity="1" fill-rule="nonzero"/><path fill="rgb(48.629761%, 53.729248%, 54.508972%)" d="M 352.148438 127.785156 C 355.65625 127.785156 355.664062 122.320312 352.148438 122.320312 C 348.636719 122.320312 348.632812 127.785156 352.148438 127.785156 " fill-opacity="1" fill-rule="nonzero"/><path fill="rgb(48.629761%, 53.729248%, 54.508972%)" d="M 442.496094 253.382812 C 433.398438 235.648438 418.152344 222.308594 403.050781 209.792969 C 387.671875 197.039062 371.503906 184.230469 361.453125 166.585938 C 356.234375 157.425781 352.859375 147.183594 352.898438 136.566406 C 352.910156 133.050781 347.457031 133.046875 347.445312 136.566406 C 347.367188 156.777344 358.3125 175.019531 371.828125 189.265625 C 385.980469 204.191406 403.191406 215.734375 417.847656 230.117188 C 425.691406 237.816406 432.746094 246.316406 437.785156 256.140625 C 438.457031 257.453125 440.296875 257.835938 441.515625 257.121094 C 442.847656 256.339844 443.171875 254.699219 442.496094 253.382812 " fill-opacity="1" fill-rule="nonzero"/><path fill="rgb(48.629761%, 53.729248%, 54.508972%)" d="M 421.644531 248.910156 C 413.753906 236.09375 402.554688 225.421875 389.335938 218.234375 C 386.25 216.554688 383.492188 221.269531 386.582031 222.949219 C 399 229.703125 409.515625 239.617188 416.9375 251.664062 C 418.773438 254.652344 423.496094 251.910156 421.644531 248.910156 " fill-opacity="1" fill-rule="nonzero"/><path fill="rgb(48.629761%, 53.729248%, 54.508972%)" d="M 381.585938 218.066406 C 385.097656 218.066406 385.101562 212.605469 381.585938 212.605469 C 378.078125 212.605469 378.070312 218.066406 381.585938 218.066406 " fill-opacity="1" fill-rule="nonzero"/><path fill="rgb(48.629761%, 53.729248%, 54.508972%)" d="M 372.355469 207.824219 C 372.355469 207.914062 372.355469 208.007812 372.355469 208.097656 C 372.355469 211.613281 377.8125 211.617188 377.8125 208.097656 C 377.8125 208.007812 377.8125 207.914062 377.8125 207.824219 C 377.8125 204.308594 372.355469 204.304688 372.355469 207.824219 C 372.355469 207.914062 372.355469 208.007812 372.355469 208.097656 C 372.355469 211.613281 377.8125 211.617188 377.8125 208.097656 C 377.8125 208.007812 377.8125 207.914062 377.8125 207.824219 C 377.8125 204.308594 372.355469 204.304688 372.355469 207.824219 " fill-opacity="1" fill-rule="nonzero"/><path fill="rgb(48.629761%, 53.729248%, 54.508972%)" d="M 368.078125 202.039062 C 371.589844 202.039062 371.59375 196.578125 368.078125 196.578125 C 364.570312 196.578125 364.5625 202.039062 368.078125 202.039062 " fill-opacity="1" fill-rule="nonzero"/><g fill="rgb(14.509583%, 20.388794%, 22.349548%)" fill-opacity="1"><g transform="translate(371.776325, 341.024659)"><g><path d="M 18.292969 -54.027344 L 3.394531 -54.027344 L 3.394531 -52.253906 C 5.941406 -51.867188 7.253906 -50.167969 7.253906 -47.3125 L 7.253906 -6.714844 C 7.253906 -3.859375 5.941406 -2.160156 3.394531 -1.773438 L 3.394531 0 L 19.0625 0 C 37.664062 0 48.085938 -9.417969 48.085938 -26.472656 C 48.085938 -43.066406 37.589844 -54.027344 18.292969 -54.027344 Z M 18.136719 -49.859375 C 36.585938 -49.859375 42.992188 -38.050781 42.992188 -26.472656 C 42.992188 -13.042969 35.351562 -4.246094 18.910156 -4.246094 L 12.117188 -4.246094 L 12.117188 -49.859375 Z M 18.136719 -49.859375 "/></g></g></g><g fill="rgb(14.509583%, 20.388794%, 22.349548%)" fill-opacity="1"><g transform="translate(424.027939, 341.024659)"><g><path d="M 47.390625 -53.023438 L 47.390625 -54.027344 L 36.042969 -54.027344 L 36.042969 -53.023438 L 39.285156 -52.097656 L 39.285156 -31.257812 L 11.5 -31.257812 L 11.5 -52.097656 L 14.742188 -53.023438 L 14.742188 -54.027344 L 3.394531 -54.027344 L 3.394531 -53.023438 C 5.558594 -52.40625 6.636719 -50.710938 6.636719 -48.007812 L 6.636719 -6.019531 C 6.636719 -3.320312 5.558594 -1.621094 3.394531 -1.003906 L 3.394531 0 L 14.742188 0 L 14.742188 -1.003906 L 11.5 -1.929688 L 11.5 -27.015625 L 39.285156 -27.015625 L 39.285156 -1.929688 L 36.042969 -1.003906 L 36.042969 0 L 47.390625 0 L 47.390625 -1.003906 C 45.230469 -1.621094 44.148438 -3.320312 44.148438 -6.019531 L 44.148438 -48.007812 C 44.148438 -50.710938 45.230469 -52.40625 47.390625 -53.023438 Z M 47.390625 -53.023438 "/></g></g></g><g fill="rgb(14.509583%, 20.388794%, 22.349548%)" fill-opacity="1"><g transform="translate(473.886939, 341.024659)"><g><path d="M 27.246094 -55.03125 C 10.496094 -55.03125 4.167969 -44.070312 4.167969 -27.554688 C 4.167969 -10.417969 10.496094 1.003906 27.246094 1.003906 C 43.6875 1.003906 50.167969 -10.417969 50.167969 -27.554688 C 50.167969 -44.070312 43.6875 -55.03125 27.246094 -55.03125 Z M 27.089844 -50.167969 C 40.828125 -50.167969 45.074219 -38.976562 45.074219 -27.554688 C 45.074219 -14.277344 40.828125 -3.859375 27.089844 -3.859375 C 13.351562 -3.859375 9.261719 -14.277344 9.261719 -27.554688 C 9.261719 -40.445312 13.351562 -50.167969 27.089844 -50.167969 Z M 27.089844 -50.167969 "/></g></g></g><g fill="rgb(14.509583%, 20.388794%, 22.349548%)" fill-opacity="1"><g transform="translate(270.784377, 391.757515)"><g><path d="M 1.117188 -0.222656 L 1.117188 0 L 11.46875 0 C 13.078125 0 14.84375 -0.289062 15.894531 -0.847656 C 16.855469 -1.363281 17.683594 -2.125 18.375 -3.039062 C 19.761719 -4.851562 20.5 -7.109375 20.5 -9.632812 C 20.5 -12.09375 19.761719 -14.441406 18.375 -16.230469 C 17.660156 -17.144531 16.832031 -17.882812 15.894531 -18.417969 C 14.867188 -19 13.746094 -19.269531 12.585938 -19.269531 L 1.117188 -19.269531 L 1.117188 -19.066406 C 2.773438 -19.066406 3.753906 -18.21875 3.753906 -16.765625 L 3.753906 -2.570312 C 3.753906 -1.164062 2.929688 -0.203125 1.117188 -0.222656 Z M 11.625 -0.222656 C 10.082031 -0.222656 8.40625 -0.289062 8.382812 -2.546875 L 8.382812 -19.023438 L 12.070312 -19.023438 C 15.871094 -19.023438 15.9375 -12.09375 15.9375 -9.632812 C 15.9375 -7.109375 15.445312 -0.222656 11.625 -0.222656 Z M 11.625 -0.222656 "/></g></g></g><g fill="rgb(14.509583%, 20.388794%, 22.349548%)" fill-opacity="1"><g transform="translate(295.528891, 391.757515)"><g><path d="M 1.117188 -0.203125 L 1.117188 0 L 17.300781 0 L 18.777344 -5.050781 L 18.574219 -5.050781 C 17.503906 -1.8125 14.867188 -0.203125 11.019531 -0.203125 C 9.386719 -0.203125 8.382812 -1.09375 8.382812 -2.570312 L 8.382812 -10.015625 L 11.734375 -10.015625 C 13.792969 -9.949219 13.992188 -8.09375 13.992188 -7.578125 L 13.992188 -7.464844 L 14.195312 -7.464844 L 14.195312 -12.742188 L 13.992188 -12.742188 L 13.992188 -12.628906 C 13.992188 -12.117188 13.792969 -10.261719 11.734375 -10.214844 L 8.382812 -10.214844 L 8.40625 -19.066406 L 10.015625 -19.066406 C 15.425781 -19.066406 16.585938 -15.757812 16.808594 -14.621094 L 16.878906 -14.21875 L 17.054688 -14.304688 L 16.296875 -19.269531 L 1.117188 -19.269531 L 1.117188 -19.066406 C 2.75 -19.066406 3.753906 -18.171875 3.753906 -16.699219 L 3.753906 -2.570312 C 3.753906 -1.09375 2.75 -0.203125 1.117188 -0.203125 Z M 1.117188 -0.203125 "/></g></g></g><g fill="rgb(14.509583%, 20.388794%, 22.349548%)" fill-opacity="1"><g transform="translate(318.552296, 391.757515)"><g><path d="M 1.140625 0 L 1.339844 0 L 1.339844 -0.0234375 C 1.339844 -1.007812 1.519531 -1.699219 4.539062 -0.535156 C 7.375 0.535156 11.402344 0.269531 13.300781 -1.632812 C 14.195312 -2.527344 14.867188 -4.136719 14.867188 -5.433594 C 14.867188 -9.367188 11.714844 -10.105469 8.046875 -12.363281 C 5.902344 -13.679688 4.875 -14.730469 4.875 -16.25 C 4.875 -17.929688 5.699219 -19.222656 8.316406 -19.222656 C 9.34375 -19.222656 10.304688 -18.957031 11.085938 -18.507812 C 13.097656 -17.210938 13.210938 -13.5 13.210938 -13.5 L 13.414062 -13.5 L 13.414062 -18.800781 L 13.210938 -18.800781 L 13.210938 -18.710938 C 13.121094 -17.859375 11.355469 -18.597656 10.597656 -18.976562 C 9.902344 -19.3125 9.121094 -19.425781 8.316406 -19.425781 C 5.632812 -19.425781 3.039062 -17.972656 2.011719 -15.648438 C 0.871094 -13.097656 1.945312 -11.511719 5.296875 -9.007812 C 7.734375 -7.199219 12.382812 -5.699219 12.292969 -3.195312 C 12.226562 -1.519531 11.019531 -0.0898438 7.777344 -0.0898438 C 4.492188 -0.0898438 1.339844 -2.996094 1.339844 -5.878906 L 1.339844 -6.394531 L 1.140625 -6.394531 Z M 1.140625 0 "/></g></g></g><g fill="rgb(14.509583%, 20.388794%, 22.349548%)" fill-opacity="1"><g transform="translate(337.217057, 391.757515)"><g><path d="M 1.117188 -0.203125 L 1.117188 0 L 17.300781 0 L 18.777344 -5.050781 L 18.574219 -5.050781 C 17.503906 -1.8125 14.867188 -0.203125 11.019531 -0.203125 C 9.386719 -0.203125 8.382812 -1.09375 8.382812 -2.570312 L 8.382812 -10.015625 L 11.734375 -10.015625 C 13.792969 -9.949219 13.992188 -8.09375 13.992188 -7.578125 L 13.992188 -7.464844 L 14.195312 -7.464844 L 14.195312 -12.742188 L 13.992188 -12.742188 L 13.992188 -12.628906 C 13.992188 -12.117188 13.792969 -10.261719 11.734375 -10.214844 L 8.382812 -10.214844 L 8.40625 -19.066406 L 10.015625 -19.066406 C 15.425781 -19.066406 16.585938 -15.757812 16.808594 -14.621094 L 16.878906 -14.21875 L 17.054688 -14.304688 L 16.296875 -19.269531 L 1.117188 -19.269531 L 1.117188 -19.066406 C 2.75 -19.066406 3.753906 -18.171875 3.753906 -16.699219 L 3.753906 -2.570312 C 3.753906 -1.09375 2.75 -0.203125 1.117188 -0.203125 Z M 1.117188 -0.203125 "/></g></g></g><g fill="rgb(14.509583%, 20.388794%, 22.349548%)" fill-opacity="1"><g transform="translate(360.240462, 391.757515)"><g><path d="M 4.203125 -16.027344 L 18.308594 0 L 18.53125 0 L 18.53125 -16.789062 C 18.597656 -19.179688 21.078125 -19.046875 21.078125 -19.046875 L 21.078125 -19.269531 L 15.78125 -19.269531 L 15.78125 -19.066406 C 15.78125 -19.046875 18.261719 -19.179688 18.332031 -16.789062 L 18.332031 -6.886719 L 7.398438 -19.269531 L 1.117188 -19.269531 L 1.117188 -19.046875 C 2.703125 -19.046875 3.597656 -18.242188 3.644531 -16.339844 L 3.644531 -2.457031 C 3.597656 -0.402344 1.722656 -0.222656 1.230469 -0.203125 L 1.117188 -0.203125 L 1.117188 0 L 6.394531 0 L 6.394531 -0.203125 L 6.28125 -0.203125 C 5.765625 -0.222656 3.910156 -0.402344 3.84375 -2.457031 L 3.84375 -16.40625 Z M 4.203125 -16.027344 "/></g></g></g><g fill="rgb(14.509583%, 20.388794%, 22.349548%)" fill-opacity="1"><g transform="translate(385.56613, 391.757515)"><g><path d="M 4.359375 -16.722656 L 11.980469 0 L 14.285156 -5.097656 L 18.84375 -15.089844 C 20.363281 -18.417969 22.085938 -18.976562 22.847656 -19.066406 L 23.226562 -19.066406 L 23.226562 -19.269531 L 17.949219 -19.269531 L 17.949219 -19.066406 L 18.015625 -19.066406 C 18.398438 -19.046875 20.320312 -18.800781 18.621094 -15.089844 L 14.171875 -5.34375 L 8.984375 -16.722656 C 8.023438 -18.867188 9.65625 -19.046875 10.082031 -19.066406 L 10.195312 -19.066406 L 10.195312 -19.269531 L 1.117188 -19.269531 L 1.117188 -19.066406 L 1.230469 -19.066406 C 1.699219 -19.046875 3.398438 -18.84375 4.359375 -16.722656 Z M 4.359375 -16.722656 "/></g></g></g><g fill="rgb(14.509583%, 20.388794%, 22.349548%)" fill-opacity="1"><g transform="translate(413.037602, 391.757515)"><g><path d="M 10.910156 0.222656 C 16.320312 0.222656 20.699219 -4.269531 20.699219 -9.679688 C 20.699219 -15.179688 16.296875 -19.582031 10.910156 -19.582031 C 5.519531 -19.582031 1.117188 -15.179688 1.117188 -9.679688 C 1.117188 -4.359375 5.453125 0.222656 10.910156 0.222656 Z M 10.910156 -0.0429688 C 9.523438 -0.0429688 5.679688 -0.871094 5.679688 -9.679688 C 5.679688 -18.398438 9.523438 -19.3125 10.910156 -19.3125 C 12.316406 -19.3125 16.140625 -18.398438 16.140625 -9.679688 C 16.140625 -0.871094 12.316406 -0.0429688 10.910156 -0.0429688 Z M 10.910156 -0.0429688 "/></g></g></g><g fill="rgb(14.509583%, 20.388794%, 22.349548%)" fill-opacity="1"><g transform="translate(437.983293, 391.757515)"><g><path d="M 1.117188 -0.203125 L 1.117188 0 L 17.300781 0 L 18.777344 -5.050781 L 18.574219 -5.050781 C 17.503906 -1.8125 14.867188 -0.203125 11.019531 -0.203125 C 9.386719 -0.203125 8.382812 -1.09375 8.382812 -2.570312 L 8.382812 -16.699219 C 8.382812 -18.171875 9.386719 -19.066406 11.019531 -19.066406 L 11.019531 -19.269531 L 1.117188 -19.269531 L 1.117188 -19.066406 C 2.75 -19.066406 3.753906 -18.171875 3.753906 -16.699219 L 3.753906 -2.570312 C 3.753906 -1.09375 2.75 -0.203125 1.117188 -0.203125 Z M 1.117188 -0.203125 "/></g></g></g><g fill="rgb(14.509583%, 20.388794%, 22.349548%)" fill-opacity="1"><g transform="translate(461.00669, 391.757515)"><g><path d="M 4.359375 -16.722656 L 11.980469 0 L 14.285156 -5.097656 L 18.84375 -15.089844 C 20.363281 -18.417969 22.085938 -18.976562 22.847656 -19.066406 L 23.226562 -19.066406 L 23.226562 -19.269531 L 17.949219 -19.269531 L 17.949219 -19.066406 L 18.015625 -19.066406 C 18.398438 -19.046875 20.320312 -18.800781 18.621094 -15.089844 L 14.171875 -5.34375 L 8.984375 -16.722656 C 8.023438 -18.867188 9.65625 -19.046875 10.082031 -19.066406 L 10.195312 -19.066406 L 10.195312 -19.269531 L 1.117188 -19.269531 L 1.117188 -19.066406 L 1.230469 -19.066406 C 1.699219 -19.046875 3.398438 -18.84375 4.359375 -16.722656 Z M 4.359375 -16.722656 "/></g></g></g><g fill="rgb(14.509583%, 20.388794%, 22.349548%)" fill-opacity="1"><g transform="translate(488.478155, 391.757515)"><g><path d="M 1.117188 -0.203125 L 1.117188 0 L 11.019531 0 L 11.019531 -0.203125 C 9.386719 -0.203125 8.382812 -1.09375 8.382812 -2.570312 L 8.382812 -16.699219 C 8.382812 -18.171875 9.386719 -19.066406 11.019531 -19.066406 L 11.019531 -19.269531 L 1.117188 -19.269531 L 1.117188 -19.066406 C 2.75 -19.066406 3.753906 -18.171875 3.753906 -16.699219 L 3.753906 -2.570312 C 3.753906 -1.09375 2.75 -0.203125 1.117188 -0.203125 Z M 1.117188 -0.203125 "/></g></g></g><g fill="rgb(14.509583%, 20.388794%, 22.349548%)" fill-opacity="1"><g transform="translate(503.745418, 391.757515)"><g><path d="M 3.867188 -16.789062 L 11.222656 0.179688 L 19.449219 -18.820312 L 19.449219 -2.457031 C 19.449219 -1.050781 18.488281 -0.203125 16.898438 -0.203125 L 16.898438 0 L 26.554688 0 L 26.554688 -0.203125 C 25.082031 -0.203125 24.054688 -0.984375 24.007812 -2.457031 L 24.007812 -16.699219 C 24.007812 -19.179688 26.535156 -19.046875 26.535156 -19.046875 L 26.535156 -19.269531 L 19.425781 -19.269531 L 13.589844 -5.8125 L 7.757812 -19.269531 L 1.117188 -19.269531 L 1.117188 -19.066406 C 1.117188 -19.046875 3.667969 -19.179688 3.667969 -16.789062 L 3.667969 -2.457031 C 3.667969 -1.050781 2.703125 -0.203125 1.117188 -0.203125 L 1.117188 0 L 6.414062 0 L 6.414062 -0.203125 C 4.941406 -0.203125 3.910156 -0.984375 3.867188 -2.457031 Z M 3.867188 -16.789062 "/></g></g></g><g fill="rgb(14.509583%, 20.388794%, 22.349548%)" fill-opacity="1"><g transform="translate(534.547336, 391.757515)"><g><path d="M 1.117188 -0.203125 L 1.117188 0 L 17.300781 0 L 18.777344 -5.050781 L 18.574219 -5.050781 C 17.503906 -1.8125 14.867188 -0.203125 11.019531 -0.203125 C 9.386719 -0.203125 8.382812 -1.09375 8.382812 -2.570312 L 8.382812 -10.015625 L 11.734375 -10.015625 C 13.792969 -9.949219 13.992188 -8.09375 13.992188 -7.578125 L 13.992188 -7.464844 L 14.195312 -7.464844 L 14.195312 -12.742188 L 13.992188 -12.742188 L 13.992188 -12.628906 C 13.992188 -12.117188 13.792969 -10.261719 11.734375 -10.214844 L 8.382812 -10.214844 L 8.40625 -19.066406 L 10.015625 -19.066406 C 15.425781 -19.066406 16.585938 -15.757812 16.808594 -14.621094 L 16.878906 -14.21875 L 17.054688 -14.304688 L 16.296875 -19.269531 L 1.117188 -19.269531 L 1.117188 -19.066406 C 2.75 -19.066406 3.753906 -18.171875 3.753906 -16.699219 L 3.753906 -2.570312 C 3.753906 -1.09375 2.75 -0.203125 1.117188 -0.203125 Z M 1.117188 -0.203125 "/></g></g></g><g fill="rgb(14.509583%, 20.388794%, 22.349548%)" fill-opacity="1"><g transform="translate(557.570733, 391.757515)"><g><path d="M 4.203125 -16.027344 L 18.308594 0 L 18.53125 0 L 18.53125 -16.789062 C 18.597656 -19.179688 21.078125 -19.046875 21.078125 -19.046875 L 21.078125 -19.269531 L 15.78125 -19.269531 L 15.78125 -19.066406 C 15.78125 -19.046875 18.261719 -19.179688 18.332031 -16.789062 L 18.332031 -6.886719 L 7.398438 -19.269531 L 1.117188 -19.269531 L 1.117188 -19.046875 C 2.703125 -19.046875 3.597656 -18.242188 3.644531 -16.339844 L 3.644531 -2.457031 C 3.597656 -0.402344 1.722656 -0.222656 1.230469 -0.203125 L 1.117188 -0.203125 L 1.117188 0 L 6.394531 0 L 6.394531 -0.203125 L 6.28125 -0.203125 C 5.765625 -0.222656 3.910156 -0.402344 3.84375 -2.457031 L 3.84375 -16.40625 Z M 4.203125 -16.027344 "/></g></g></g><g fill="rgb(14.509583%, 20.388794%, 22.349548%)" fill-opacity="1"><g transform="translate(582.896393, 391.757515)"><g><path d="M 5.746094 -0.203125 L 5.746094 0 L 15.648438 0 L 15.648438 -0.203125 C 14.015625 -0.203125 13.011719 -1.09375 13.011719 -2.570312 L 13.011719 -19.066406 L 13.210938 -19.066406 C 18.621094 -19.066406 19.785156 -15.757812 20.007812 -14.621094 L 20.074219 -14.21875 L 20.253906 -14.304688 L 19.492188 -19.269531 L 1.878906 -19.269531 L 1.117188 -14.304688 L 1.296875 -14.21875 L 1.363281 -14.621094 C 1.609375 -15.757812 2.75 -19.066406 8.160156 -19.066406 L 8.382812 -19.066406 L 8.382812 -2.570312 C 8.382812 -1.09375 7.375 -0.203125 5.746094 -0.203125 Z M 5.746094 -0.203125 "/></g></g></g><g fill="rgb(14.509583%, 20.388794%, 22.349548%)" fill-opacity="1"><g transform="translate(607.395048, 391.757515)"><g><path d="M 10.910156 0.222656 C 16.320312 0.222656 20.699219 -4.269531 20.699219 -9.679688 C 20.699219 -15.179688 16.296875 -19.582031 10.910156 -19.582031 C 5.519531 -19.582031 1.117188 -15.179688 1.117188 -9.679688 C 1.117188 -4.359375 5.453125 0.222656 10.910156 0.222656 Z M 10.910156 -0.0429688 C 9.523438 -0.0429688 5.679688 -0.871094 5.679688 -9.679688 C 5.679688 -18.398438 9.523438 -19.3125 10.910156 -19.3125 C 12.316406 -19.3125 16.140625 -18.398438 16.140625 -9.679688 C 16.140625 -0.871094 12.316406 -0.0429688 10.910156 -0.0429688 Z M 10.910156 -0.0429688 "/></g></g></g><g fill="rgb(14.509583%, 20.388794%, 22.349548%)" fill-opacity="1"><g transform="translate(370.688612, 414.813598)"><g><path d="M 1.117188 -0.203125 L 1.117188 0 L 11.019531 0 L 11.019531 -0.203125 C 9.386719 -0.203125 8.382812 -1.09375 8.382812 -2.570312 L 8.382812 -9.054688 L 16.027344 -9.054688 L 16.027344 -2.570312 C 16.027344 -1.09375 15.023438 -0.203125 13.390625 -0.203125 L 13.390625 0 L 23.292969 0 L 23.292969 -0.203125 C 21.660156 -0.203125 20.65625 -1.09375 20.65625 -2.570312 L 20.65625 -16.699219 C 20.65625 -18.171875 21.660156 -19.066406 23.292969 -19.066406 L 23.292969 -19.269531 L 13.390625 -19.269531 L 13.390625 -19.066406 C 15.023438 -19.066406 16.027344 -18.171875 16.027344 -16.699219 L 16.027344 -9.253906 L 8.382812 -9.253906 L 8.382812 -16.699219 C 8.382812 -18.171875 9.386719 -19.066406 11.019531 -19.066406 L 11.019531 -19.269531 L 1.117188 -19.269531 L 1.117188 -19.066406 C 2.75 -19.066406 3.753906 -18.171875 3.753906 -16.699219 L 3.753906 -2.570312 C 3.753906 -1.09375 2.75 -0.203125 1.117188 -0.203125 Z M 1.117188 -0.203125 "/></g></g></g><g fill="rgb(14.509583%, 20.388794%, 22.349548%)" fill-opacity="1"><g transform="translate(398.227135, 414.813598)"><g><path d="M 11.488281 0.15625 C 15.511719 0.15625 18.890625 -1.945312 18.890625 -6.101562 L 18.890625 -16.808594 C 18.890625 -18.21875 19.851562 -19.066406 21.414062 -19.066406 L 21.414062 -19.269531 L 16.140625 -19.269531 L 16.140625 -19.066406 C 17.75 -19.066406 18.6875 -18.21875 18.6875 -16.808594 L 18.6875 -6.101562 C 18.6875 -1.585938 14.53125 -0.113281 12.363281 -0.113281 C 8.851562 -0.113281 8.226562 -4.785156 8.226562 -7.957031 L 8.226562 -16.855469 C 8.226562 -18.171875 9.121094 -19.066406 10.753906 -19.066406 L 10.753906 -19.269531 L 1.117188 -19.269531 L 1.117188 -19.066406 C 2.726562 -19.066406 3.667969 -18.171875 3.667969 -16.699219 L 3.667969 -6.257812 C 3.667969 -2.59375 7.757812 0.15625 11.488281 0.15625 Z M 11.488281 0.15625 "/></g></g></g><g fill="rgb(14.509583%, 20.388794%, 22.349548%)" fill-opacity="1"><g transform="translate(423.888092, 414.813598)"><g><path d="M 3.867188 -16.789062 L 11.222656 0.179688 L 19.449219 -18.820312 L 19.449219 -2.457031 C 19.449219 -1.050781 18.488281 -0.203125 16.898438 -0.203125 L 16.898438 0 L 26.554688 0 L 26.554688 -0.203125 C 25.082031 -0.203125 24.054688 -0.984375 24.007812 -2.457031 L 24.007812 -16.699219 C 24.007812 -19.179688 26.535156 -19.046875 26.535156 -19.046875 L 26.535156 -19.269531 L 19.425781 -19.269531 L 13.589844 -5.8125 L 7.757812 -19.269531 L 1.117188 -19.269531 L 1.117188 -19.066406 C 1.117188 -19.046875 3.667969 -19.179688 3.667969 -16.789062 L 3.667969 -2.457031 C 3.667969 -1.050781 2.703125 -0.203125 1.117188 -0.203125 L 1.117188 0 L 6.414062 0 L 6.414062 -0.203125 C 4.941406 -0.203125 3.910156 -0.984375 3.867188 -2.457031 Z M 3.867188 -16.789062 "/></g></g></g><g fill="rgb(14.509583%, 20.388794%, 22.349548%)" fill-opacity="1"><g transform="translate(454.690018, 414.813598)"><g><path d="M 1.117188 -0.203125 L 1.117188 0 L 6.394531 0 L 6.394531 -0.203125 L 6.324219 -0.203125 C 5.945312 -0.222656 4.023438 -0.445312 5.722656 -4.179688 L 6.460938 -5.789062 L 13.882812 -5.789062 L 15.355469 -2.546875 C 16.339844 -0.402344 14.707031 -0.222656 14.261719 -0.203125 L 14.148438 -0.203125 L 14.148438 0 L 23.226562 0 L 23.226562 -0.203125 L 23.113281 -0.203125 C 22.667969 -0.222656 20.945312 -0.425781 19.984375 -2.546875 L 12.363281 -19.269531 L 10.058594 -14.171875 L 5.5 -4.179688 C 4 -0.847656 2.257812 -0.289062 1.496094 -0.203125 Z M 13.792969 -5.992188 L 6.550781 -5.992188 L 10.171875 -13.925781 Z M 13.792969 -5.992188 "/></g></g></g><g fill="rgb(14.509583%, 20.388794%, 22.349548%)" fill-opacity="1"><g transform="translate(482.16149, 414.813598)"><g><path d="M 4.203125 -16.027344 L 18.308594 0 L 18.53125 0 L 18.53125 -16.789062 C 18.597656 -19.179688 21.078125 -19.046875 21.078125 -19.046875 L 21.078125 -19.269531 L 15.78125 -19.269531 L 15.78125 -19.066406 C 15.78125 -19.046875 18.261719 -19.179688 18.332031 -16.789062 L 18.332031 -6.886719 L 7.398438 -19.269531 L 1.117188 -19.269531 L 1.117188 -19.046875 C 2.703125 -19.046875 3.597656 -18.242188 3.644531 -16.339844 L 3.644531 -2.457031 C 3.597656 -0.402344 1.722656 -0.222656 1.230469 -0.203125 L 1.117188 -0.203125 L 1.117188 0 L 6.394531 0 L 6.394531 -0.203125 L 6.28125 -0.203125 C 5.765625 -0.222656 3.910156 -0.402344 3.84375 -2.457031 L 3.84375 -16.40625 Z M 4.203125 -16.027344 "/></g></g></g><g fill="rgb(14.509583%, 20.388794%, 22.349548%)" fill-opacity="1"><g transform="translate(507.487166, 414.813598)"><g><path d="M 10.910156 0.222656 C 16.320312 0.222656 20.699219 -4.269531 20.699219 -9.679688 C 20.699219 -15.179688 16.296875 -19.582031 10.910156 -19.582031 C 5.519531 -19.582031 1.117188 -15.179688 1.117188 -9.679688 C 1.117188 -4.359375 5.453125 0.222656 10.910156 0.222656 Z M 10.910156 -0.0429688 C 9.523438 -0.0429688 5.679688 -0.871094 5.679688 -9.679688 C 5.679688 -18.398438 9.523438 -19.3125 10.910156 -19.3125 C 12.316406 -19.3125 16.140625 -18.398438 16.140625 -9.679688 C 16.140625 -0.871094 12.316406 -0.0429688 10.910156 -0.0429688 Z M 10.910156 -0.0429688 "/></g></g></g><g fill="rgb(14.509583%, 20.388794%, 22.349548%)" fill-opacity="1"><g transform="translate(285.276305, 437.869681)"><g><path d="M 10.910156 0.222656 C 16.320312 0.222656 20.699219 -4.269531 20.699219 -9.679688 C 20.699219 -15.179688 16.296875 -19.582031 10.910156 -19.582031 C 5.519531 -19.582031 1.117188 -15.179688 1.117188 -9.679688 C 1.117188 -4.359375 5.453125 0.222656 10.910156 0.222656 Z M 10.910156 -0.0429688 C 9.523438 -0.0429688 5.679688 -0.871094 5.679688 -9.679688 C 5.679688 -18.398438 9.523438 -19.3125 10.910156 -19.3125 C 12.316406 -19.3125 16.140625 -18.398438 16.140625 -9.679688 C 16.140625 -0.871094 12.316406 -0.0429688 10.910156 -0.0429688 Z M 10.910156 -0.0429688 "/></g></g></g><g fill="rgb(14.509583%, 20.388794%, 22.349548%)" fill-opacity="1"><g transform="translate(310.221988, 437.869681)"><g><path d="M 1.117188 -0.203125 L 1.117188 0 L 10.773438 0 L 10.773438 -0.203125 C 9.097656 -0.203125 8.382812 -0.9375 8.382812 -2.527344 L 8.382812 -9.210938 L 10.929688 -9.210938 C 12.539062 -9.210938 12.070312 -8.203125 13.414062 -4.761719 C 14.796875 -1.207031 16.386719 0 18.0625 0 L 22.085938 0 L 22.085938 -0.203125 C 20.074219 -0.203125 19.113281 -1.164062 17.972656 -4.761719 C 16.878906 -8.203125 15.828125 -9.210938 12.675781 -9.386719 C 15.378906 -9.835938 17.816406 -11.332031 17.816406 -14.304688 C 17.816406 -17.90625 14.417969 -19.269531 10.796875 -19.269531 L 1.117188 -19.269531 L 1.117188 -19.066406 L 1.386719 -19.066406 C 2.054688 -19.046875 3.753906 -18.753906 3.753906 -16.699219 L 3.753906 -2.570312 C 3.753906 -0.9375 2.792969 -0.203125 1.117188 -0.203125 Z M 10.796875 -9.433594 L 8.382812 -9.433594 L 8.382812 -19.066406 L 10.796875 -19.066406 C 12.40625 -19.066406 13.257812 -17.011719 13.257812 -14.304688 C 13.257812 -11.578125 12.40625 -9.433594 10.796875 -9.433594 Z M 10.796875 -9.433594 "/></g></g></g><g fill="rgb(14.509583%, 20.388794%, 22.349548%)" fill-opacity="1"><g transform="translate(336.553506, 437.869681)"><g><path d="M 10.886719 0 C 12.046875 0 13.144531 -0.203125 14.195312 -0.582031 C 16.183594 -1.164062 18.332031 -1.027344 18.398438 -0.203125 L 18.597656 -0.203125 L 18.597656 -6.214844 C 18.644531 -7.621094 19.605469 -8.472656 21.148438 -8.472656 L 21.148438 -8.671875 L 11.511719 -8.671875 L 11.511719 -8.472656 C 12.964844 -8.472656 14.015625 -7.667969 14.039062 -6.191406 L 14.039062 -0.9375 C 13.210938 -0.582031 11.78125 -0.269531 10.886719 -0.269531 C 9.5 -0.269531 5.679688 -1.183594 5.65625 -9.792969 C 5.679688 -18.398438 9.5 -19.3125 10.886719 -19.3125 C 11.3125 -19.3125 12.292969 -19.222656 13.457031 -18.867188 C 15.894531 -18.039062 17.210938 -16.476562 17.28125 -14.105469 L 17.480469 -14.105469 L 17.480469 -19.378906 L 17.28125 -19.378906 C 17.210938 -18.53125 16.296875 -18.375 14.195312 -19 C 13.144531 -19.378906 12.046875 -19.582031 10.886719 -19.582031 C 8.316406 -19.582031 5.902344 -18.574219 4.046875 -16.789062 C 2.257812 -14.976562 1.25 -12.785156 1.117188 -10.371094 L 1.117188 -9.253906 C 1.410156 -4.070312 5.722656 0 10.886719 0 Z M 10.886719 0 "/></g></g></g><g fill="rgb(14.509583%, 20.388794%, 22.349548%)" fill-opacity="1"><g transform="translate(361.946241, 437.869681)"><g><path d="M 1.117188 -0.203125 L 1.117188 0 L 6.394531 0 L 6.394531 -0.203125 L 6.324219 -0.203125 C 5.945312 -0.222656 4.023438 -0.445312 5.722656 -4.179688 L 6.460938 -5.789062 L 13.882812 -5.789062 L 15.355469 -2.546875 C 16.339844 -0.402344 14.707031 -0.222656 14.261719 -0.203125 L 14.148438 -0.203125 L 14.148438 0 L 23.226562 0 L 23.226562 -0.203125 L 23.113281 -0.203125 C 22.667969 -0.222656 20.945312 -0.425781 19.984375 -2.546875 L 12.363281 -19.269531 L 10.058594 -14.171875 L 5.5 -4.179688 C 4 -0.847656 2.257812 -0.289062 1.496094 -0.203125 Z M 13.792969 -5.992188 L 6.550781 -5.992188 L 10.171875 -13.925781 Z M 13.792969 -5.992188 "/></g></g></g><g fill="rgb(14.509583%, 20.388794%, 22.349548%)" fill-opacity="1"><g transform="translate(389.417713, 437.869681)"><g><path d="M 4.203125 -16.027344 L 18.308594 0 L 18.53125 0 L 18.53125 -16.789062 C 18.597656 -19.179688 21.078125 -19.046875 21.078125 -19.046875 L 21.078125 -19.269531 L 15.78125 -19.269531 L 15.78125 -19.066406 C 15.78125 -19.046875 18.261719 -19.179688 18.332031 -16.789062 L 18.332031 -6.886719 L 7.398438 -19.269531 L 1.117188 -19.269531 L 1.117188 -19.046875 C 2.703125 -19.046875 3.597656 -18.242188 3.644531 -16.339844 L 3.644531 -2.457031 C 3.597656 -0.402344 1.722656 -0.222656 1.230469 -0.203125 L 1.117188 -0.203125 L 1.117188 0 L 6.394531 0 L 6.394531 -0.203125 L 6.28125 -0.203125 C 5.765625 -0.222656 3.910156 -0.402344 3.84375 -2.457031 L 3.84375 -16.40625 Z M 4.203125 -16.027344 "/></g></g></g><g fill="rgb(14.509583%, 20.388794%, 22.349548%)" fill-opacity="1"><g transform="translate(414.743381, 437.869681)"><g><path d="M 1.117188 -0.203125 L 1.117188 0 L 11.019531 0 L 11.019531 -0.203125 C 9.386719 -0.203125 8.382812 -1.09375 8.382812 -2.570312 L 8.382812 -16.699219 C 8.382812 -18.171875 9.386719 -19.066406 11.019531 -19.066406 L 11.019531 -19.269531 L 1.117188 -19.269531 L 1.117188 -19.066406 C 2.75 -19.066406 3.753906 -18.171875 3.753906 -16.699219 L 3.753906 -2.570312 C 3.753906 -1.09375 2.75 -0.203125 1.117188 -0.203125 Z M 1.117188 -0.203125 "/></g></g></g><g fill="rgb(14.509583%, 20.388794%, 22.349548%)" fill-opacity="1"><g transform="translate(430.010637, 437.869681)"><g><path d="M 12.136719 -19.066406 L 1.117188 0 L 16.921875 0 L 18.351562 -4.960938 L 18.171875 -5.050781 L 18.0625 -4.671875 C 17.683594 -3.554688 16.09375 -0.203125 10.640625 -0.203125 L 6.660156 -0.203125 L 17.683594 -19.269531 L 3.375 -19.269531 L 1.945312 -14.304688 L 2.125 -14.21875 L 2.234375 -14.597656 C 2.617188 -15.714844 4.203125 -19.066406 9.65625 -19.066406 Z M 12.136719 -19.066406 "/></g></g></g><g fill="rgb(14.509583%, 20.388794%, 22.349548%)" fill-opacity="1"><g transform="translate(452.609353, 437.869681)"><g><path d="M 1.117188 -0.203125 L 1.117188 0 L 6.394531 0 L 6.394531 -0.203125 L 6.324219 -0.203125 C 5.945312 -0.222656 4.023438 -0.445312 5.722656 -4.179688 L 6.460938 -5.789062 L 13.882812 -5.789062 L 15.355469 -2.546875 C 16.339844 -0.402344 14.707031 -0.222656 14.261719 -0.203125 L 14.148438 -0.203125 L 14.148438 0 L 23.226562 0 L 23.226562 -0.203125 L 23.113281 -0.203125 C 22.667969 -0.222656 20.945312 -0.425781 19.984375 -2.546875 L 12.363281 -19.269531 L 10.058594 -14.171875 L 5.5 -4.179688 C 4 -0.847656 2.257812 -0.289062 1.496094 -0.203125 Z M 13.792969 -5.992188 L 6.550781 -5.992188 L 10.171875 -13.925781 Z M 13.792969 -5.992188 "/></g></g></g><g fill="rgb(14.509583%, 20.388794%, 22.349548%)" fill-opacity="1"><g transform="translate(480.080818, 437.869681)"><g><path d="M 10.910156 0 C 12.046875 0 13.167969 -0.203125 14.195312 -0.582031 C 16.230469 -1.183594 17.210938 -1.09375 17.300781 -0.203125 L 17.503906 -0.203125 L 17.503906 -6.816406 L 17.300781 -6.816406 L 17.300781 -6.503906 C 17.234375 -2.660156 14.664062 -0.203125 10.910156 -0.203125 C 9.523438 -0.203125 5.699219 -1.183594 5.679688 -9.792969 C 5.699219 -18.398438 9.523438 -19.378906 10.910156 -19.378906 C 14.105469 -19.378906 17.167969 -17.390625 17.300781 -14.105469 L 17.503906 -14.105469 L 17.503906 -19.378906 L 17.300781 -19.378906 C 17.210938 -18.53125 16.320312 -18.375 14.195312 -19 C 13.167969 -19.378906 12.046875 -19.582031 10.910156 -19.582031 C 8.292969 -19.582031 5.835938 -18.554688 4 -16.722656 L 3.933594 -16.652344 C 2.324219 -15.023438 1.273438 -12.808594 1.117188 -10.371094 L 1.117188 -9.253906 C 1.410156 -4.070312 5.722656 0 10.910156 0 Z M 10.910156 0 "/></g></g></g><g fill="rgb(14.509583%, 20.388794%, 22.349548%)" fill-opacity="1"><g transform="translate(501.830158, 437.869681)"><g><path d="M 1.117188 -0.203125 L 1.117188 0 L 11.019531 0 L 11.019531 -0.203125 C 9.386719 -0.203125 8.382812 -1.09375 8.382812 -2.570312 L 8.382812 -16.699219 C 8.382812 -18.171875 9.386719 -19.066406 11.019531 -19.066406 L 11.019531 -19.269531 L 1.117188 -19.269531 L 1.117188 -19.066406 C 2.75 -19.066406 3.753906 -18.171875 3.753906 -16.699219 L 3.753906 -2.570312 C 3.753906 -1.09375 2.75 -0.203125 1.117188 -0.203125 Z M 1.117188 -0.203125 "/></g></g></g><g fill="rgb(14.509583%, 20.388794%, 22.349548%)" fill-opacity="1"><g transform="translate(517.097422, 437.869681)"><g><path d="M 10.910156 0.222656 C 16.320312 0.222656 20.699219 -4.269531 20.699219 -9.679688 C 20.699219 -15.179688 16.296875 -19.582031 10.910156 -19.582031 C 5.519531 -19.582031 1.117188 -15.179688 1.117188 -9.679688 C 1.117188 -4.359375 5.453125 0.222656 10.910156 0.222656 Z M 10.910156 -0.0429688 C 9.523438 -0.0429688 5.679688 -0.871094 5.679688 -9.679688 C 5.679688 -18.398438 9.523438 -19.3125 10.910156 -19.3125 C 12.316406 -19.3125 16.140625 -18.398438 16.140625 -9.679688 C 16.140625 -0.871094 12.316406 -0.0429688 10.910156 -0.0429688 Z M 10.910156 -0.0429688 "/></g></g></g><g fill="rgb(14.509583%, 20.388794%, 22.349548%)" fill-opacity="1"><g transform="translate(542.043114, 437.869681)"><g><path d="M 4.203125 -16.027344 L 18.308594 0 L 18.53125 0 L 18.53125 -16.789062 C 18.597656 -19.179688 21.078125 -19.046875 21.078125 -19.046875 L 21.078125 -19.269531 L 15.78125 -19.269531 L 15.78125 -19.066406 C 15.78125 -19.046875 18.261719 -19.179688 18.332031 -16.789062 L 18.332031 -6.886719 L 7.398438 -19.269531 L 1.117188 -19.269531 L 1.117188 -19.046875 C 2.703125 -19.046875 3.597656 -18.242188 3.644531 -16.339844 L 3.644531 -2.457031 C 3.597656 -0.402344 1.722656 -0.222656 1.230469 -0.203125 L 1.117188 -0.203125 L 1.117188 0 L 6.394531 0 L 6.394531 -0.203125 L 6.28125 -0.203125 C 5.765625 -0.222656 3.910156 -0.402344 3.84375 -2.457031 L 3.84375 -16.40625 Z M 4.203125 -16.027344 "/></g></g></g><g fill="rgb(14.509583%, 20.388794%, 22.349548%)" fill-opacity="1"><g transform="translate(567.368774, 437.869681)"><g><path d="M 1.117188 -0.203125 L 1.117188 0 L 6.394531 0 L 6.394531 -0.203125 L 6.324219 -0.203125 C 5.945312 -0.222656 4.023438 -0.445312 5.722656 -4.179688 L 6.460938 -5.789062 L 13.882812 -5.789062 L 15.355469 -2.546875 C 16.339844 -0.402344 14.707031 -0.222656 14.261719 -0.203125 L 14.148438 -0.203125 L 14.148438 0 L 23.226562 0 L 23.226562 -0.203125 L 23.113281 -0.203125 C 22.667969 -0.222656 20.945312 -0.425781 19.984375 -2.546875 L 12.363281 -19.269531 L 10.058594 -14.171875 L 5.5 -4.179688 C 4 -0.847656 2.257812 -0.289062 1.496094 -0.203125 Z M 13.792969 -5.992188 L 6.550781 -5.992188 L 10.171875 -13.925781 Z M 13.792969 -5.992188 "/></g></g></g><g fill="rgb(14.509583%, 20.388794%, 22.349548%)" fill-opacity="1"><g transform="translate(594.840238, 437.869681)"><g><path d="M 1.117188 -0.203125 L 1.117188 0 L 17.300781 0 L 18.777344 -5.050781 L 18.574219 -5.050781 C 17.503906 -1.8125 14.867188 -0.203125 11.019531 -0.203125 C 9.386719 -0.203125 8.382812 -1.09375 8.382812 -2.570312 L 8.382812 -16.699219 C 8.382812 -18.171875 9.386719 -19.066406 11.019531 -19.066406 L 11.019531 -19.269531 L 1.117188 -19.269531 L 1.117188 -19.066406 C 2.75 -19.066406 3.753906 -18.171875 3.753906 -16.699219 L 3.753906 -2.570312 C 3.753906 -1.09375 2.75 -0.203125 1.117188 -0.203125 Z M 1.117188 -0.203125 "/></g></g></g></svg>